<svg width="800" height="600" viewBox="0 0 800 600" fill="none" xmlns="http://www.w3.org/2000/svg">
  <rect width="800" height="600" fill="#f59e0b"/>
  <g opacity="0.9">
    <!-- Maisons et appartements en arrière-plan -->
    <rect x="50" y="300" width="120" height="200" fill="white" opacity="0.8"/>
    <polygon points="50,300 110,250 170,300" fill="white" opacity="0.8"/>
    <rect x="70" y="350" width="20" height="30" fill="#f59e0b"/>
    <rect x="120" y="350" width="30" height="40" fill="#f59e0b"/>
    
    <rect x="200" y="250" width="100" height="250" fill="white" opacity="0.8"/>
    <polygon points="200,250 250,200 300,250" fill="white" opacity="0.8"/>
    <rect x="220" y="300" width="15" height="25" fill="#f59e0b"/>
    <rect x="260" y="300" width="15" height="25" fill="#f59e0b"/>
    <rect x="220" y="350" width="25" height="35" fill="#f59e0b"/>
    
    <rect x="330" y="280" width="140" height="220" fill="white" opacity="0.8"/>
    <polygon points="330,280 400,220 470,280" fill="white" opacity="0.8"/>
    <rect x="350" y="330" width="20" height="30" fill="#f59e0b"/>
    <rect x="390" y="330" width="20" height="30" fill="#f59e0b"/>
    <rect x="430" y="330" width="20" height="30" fill="#f59e0b"/>
    <rect x="365" y="400" width="30" height="40" fill="#f59e0b"/>
    
    <rect x="500" y="320" width="110" height="180" fill="white" opacity="0.8"/>
    <polygon points="500,320 555,270 610,320" fill="white" opacity="0.8"/>
    <rect x="520" y="370" width="18" height="28" fill="#f59e0b"/>
    <rect x="565" y="370" width="18" height="28" fill="#f59e0b"/>
    <rect x="535" y="430" width="25" height="35" fill="#f59e0b"/>
    
    <rect x="640" y="290" width="120" height="210" fill="white" opacity="0.8"/>
    <polygon points="640,290 700,240 760,290" fill="white" opacity="0.8"/>
    <rect x="660" y="340" width="20" height="30" fill="#f59e0b"/>
    <rect x="700" y="340" width="20" height="30" fill="#f59e0b"/>
    <rect x="675" y="410" width="30" height="40" fill="#f59e0b"/>
  </g>
  
  <!-- Personnes chaleureuses au premier plan -->
  <g opacity="0.9">
    <!-- Groupe de personnes -->
    <circle cx="200" cy="150" r="30" fill="white"/>
    <path d="M170 180 L170 250" stroke="white" stroke-width="6"/>
    <path d="M230 180 L230 250" stroke="white" stroke-width="6"/>
    <path d="M150 200 L180 220" stroke="white" stroke-width="4"/>
    <path d="M220 220 L250 200" stroke="white" stroke-width="4"/>
    
    <circle cx="350" cy="140" r="30" fill="white"/>
    <path d="M320 170 L320 240" stroke="white" stroke-width="6"/>
    <path d="M380 170 L380 240" stroke="white" stroke-width="6"/>
    <path d="M300 190 L330 210" stroke="white" stroke-width="4"/>
    <path d="M370 210 L400 190" stroke="white" stroke-width="4"/>
    
    <circle cx="550" cy="160" r="30" fill="white"/>
    <path d="M520 190 L520 260" stroke="white" stroke-width="6"/>
    <path d="M580 190 L580 260" stroke="white" stroke-width="6"/>
    <path d="M500 210 L530 230" stroke="white" stroke-width="4"/>
    <path d="M570 230 L600 210" stroke="white" stroke-width="4"/>
  </g>
  
  <!-- Texte central -->
  <text x="400" y="100" text-anchor="middle" fill="white" font-family="Arial, sans-serif" font-size="36" font-weight="bold">
    COMMUNAUTÉ WUUNE
  </text>
  <text x="400" y="530" text-anchor="middle" fill="white" font-family="Arial, sans-serif" font-size="24">
    Des personnes chaleureuses dans la lutte
  </text>
</svg>
