<svg width="800" height="600" viewBox="0 0 800 600" fill="none" xmlns="http://www.w3.org/2000/svg">
  <rect width="800" height="600" fill="#dc2626"/>
  <g opacity="0.8">
    <!-- Silhouettes de personnes manifestant -->
    <path d="M150 550 L150 450 C150 430 165 415 185 415 C205 415 220 430 220 450 L220 550" stroke="white" stroke-width="4" fill="none"/>
    <circle cx="185" cy="390" r="25" fill="white"/>
    <path d="M200 350 L250 320" stroke="white" stroke-width="3"/>
    <rect x="250" y="310" width="60" height="20" fill="white" rx="2"/>
    
    <path d="M300 550 L300 460 C300 440 315 425 335 425 C355 425 370 440 370 460 L370 550" stroke="white" stroke-width="4" fill="none"/>
    <circle cx="335" cy="400" r="25" fill="white"/>
    <path d="M350 360 L400 330" stroke="white" stroke-width="3"/>
    <rect x="400" y="320" width="80" height="20" fill="white" rx="2"/>
    
    <path d="M450 550 L450 470 C450 450 465 435 485 435 C505 435 520 450 520 470 L520 550" stroke="white" stroke-width="4" fill="none"/>
    <circle cx="485" cy="410" r="25" fill="white"/>
    <path d="M470 370 L420 340" stroke="white" stroke-width="3"/>
    <rect x="340" y="330" width="100" height="20" fill="white" rx="2"/>
    
    <path d="M580 550 L580 465 C580 445 595 430 615 430 C635 430 650 445 650 465 L650 550" stroke="white" stroke-width="4" fill="none"/>
    <circle cx="615" cy="405" r="25" fill="white"/>
    
    <!-- Coeurs et symboles de solidarité -->
    <g transform="translate(100,100)">
      <path d="M12 21.35l-1.45-1.32C5.4 15.36 2 12.28 2 8.5 2 5.42 4.42 3 7.5 3c1.74 0 3.41.81 4.5 2.09C13.09 3.81 14.76 3 16.5 3 19.58 3 22 5.42 22 8.5c0 3.78-3.4 6.86-8.55 11.54L12 21.35z" fill="white" opacity="0.7"/>
    </g>
    
    <g transform="translate(600,150)">
      <path d="M12 21.35l-1.45-1.32C5.4 15.36 2 12.28 2 8.5 2 5.42 4.42 3 7.5 3c1.74 0 3.41.81 4.5 2.09C13.09 3.81 14.76 3 16.5 3 19.58 3 22 5.42 22 8.5c0 3.78-3.4 6.86-8.55 11.54L12 21.35z" fill="white" opacity="0.7"/>
    </g>
  </g>
  
  <!-- Texte central -->
  <text x="400" y="250" text-anchor="middle" fill="white" font-family="Arial, sans-serif" font-size="48" font-weight="bold">
    ENSEMBLE
  </text>
  <text x="400" y="300" text-anchor="middle" fill="white" font-family="Arial, sans-serif" font-size="36">
    POUR DES LOYERS ÉQUITABLES
  </text>
</svg>
