<svg xmlns="http://www.w3.org/2000/svg" viewBox="0 0 40 40">
  <path fill="#FFFFFF" d="M20,0 C31.046,0 40,8.954 40,20 C40,31.046 31.046,40 20,40 C8.954,40 0,31.046 0,20 C0,8.954 8.954,0 20,0 Z M20,5 C11.716,5 5,11.716 5,20 C5,28.284 11.716,35 20,35 C28.284,35 35,28.284 35,20 C35,11.716 28.284,5 20,5 Z"/>
  <path fill="#FFFFFF" d="M15,10 C17.761,10 20,12.239 20,15 C20,17.761 17.761,20 15,20 C12.239,20 10,17.761 10,15 C10,12.239 12.239,10 15,10 Z"/>
  <path fill="#FFFFFF" d="M25,20 C27.761,20 30,22.239 30,25 C30,27.761 27.761,30 25,30 C22.239,30 20,27.761 20,25 C20,22.239 22.239,20 25,20 Z"/>
  <path fill="#FFFFFF" d="M20,10 L20,30 C15,30 10,25 10,20 C10,15 15,10 20,10 Z"/>
</svg>
