<svg xmlns="http://www.w3.org/2000/svg" viewBox="0 0 24 24">
  <path fill="#f18240" d="M12,0 C18.627,0 24,5.373 24,12 C24,18.627 18.627,24 12,24 C5.373,24 0,18.627 0,12 C0,5.373 5.373,0 12,0 Z M12,3 C7.029,3 3,7.029 3,12 C3,16.971 7.029,21 12,21 C16.971,21 21,16.971 21,12 C21,7.029 16.971,3 12,3 Z"/>
  <path fill="#f18240" d="M9,6 C10.657,6 12,7.343 12,9 C12,10.657 10.657,12 9,12 C7.343,12 6,10.657 6,9 C6,7.343 7.343,6 9,6 Z"/>
  <path fill="#f18240" d="M15,12 C16.657,12 18,13.343 18,15 C18,16.657 16.657,18 15,18 C13.343,18 12,16.657 12,15 C12,13.343 13.343,12 15,12 Z"/>
  <path fill="#f18240" d="M12,6 L12,18 C9,18 6,15 6,12 C6,9 9,6 12,6 Z"/>
</svg>
